<?xml version="1.0" encoding="utf-8"?>
<!-- Generator: Adobe Illustrator 26.5.1, SVG Export Plug-In . SVG Version: 6.00 Build 0)  -->
<svg version="1.1" id="Camada_1" xmlns="http://www.w3.org/2000/svg" xmlns:xlink="http://www.w3.org/1999/xlink" x="0px" y="0px"
	 viewBox="0 0 100 100" style="enable-background:new 0 0 100 100;" xml:space="preserve">
<style type="text/css">
	.st0{fill:#0A0A0A;}
</style>
<g>
	<defs>
		<rect id="SVGID_1_" x="-525.9" y="-543.5" width="955.6" height="198.4"/>
	</defs>
	<clipPath id="SVGID_00000182505585251811669090000014273596989570177932_">
		<use xlink:href="#SVGID_1_"  style="overflow:visible;"/>
	</clipPath>
	<g style="clip-path:url(#SVGID_00000182505585251811669090000014273596989570177932_);">
		
			<image style="overflow:visible;" width="1920" height="1080" xlink:href="F3600C7E.jpg"  transform="matrix(1 0 0 1 -763.9238 -996.0823)">
		</image>
	</g>
</g>
<g>
	<path class="st0" d="M24.4,40.5c0.7-0.8,1.6-1.2,2.7-1.2c4.7,0.1,9.5,0,14.2,0c2.2,0,2.7,0.6,2.7,2.8c0,5.4,0,10.7,0,16.1
		c0,2.2-0.5,2.9-2.7,2.9c-1.1,0-1.2,0.5-1.1,1.4c0,3.4,0,6.8,0,10.2c0,2.1-0.5,2.7-2,2.8c-1.5,0-2-0.6-2-2.7c0-4.3,0-8.5,0-12.8
		c0-2.2,0.5-2.8,2.7-2.8c0.9,0,1.1-0.3,1.1-1.2c0-3.8,0-7.6,0-11.4c0-0.9-0.2-1.3-1.2-1.3c-3.1,0.1-6.1,0.1-9.2,0
		c-1,0-1.2,0.4-1.2,1.3c0,3.8,0,7.6,0,11.4c0,0.9,0.2,1.1,1.2,1.2c2.1,0,2.6,0.6,2.6,2.7c0,4.3,0,8.6,0,13c0,1.3-0.1,2.6-1.9,2.6
		c-1.6,0-2-0.6-2-2.7c0-3.5,0-6.9,0-10.4c0-0.9-0.1-1.4-1.2-1.3c-1.1,0.1-2-0.4-2.6-1.3C24.4,53.4,24.4,46.9,24.4,40.5z"/>
	<path class="st0" d="M51,24.6c0.7,0.8,0.9,1.6,0.9,2.7c0,15.2,0,30.3,0,45.5c0,2.1-0.5,2.7-2,2.7c-1.3,0-1.9-0.6-2-1.8
		c0-0.4,0-0.8,0-1.2c0-14.9,0-29.8,0-44.8c0-1.1,0.2-2.1,0.7-3.1C49.4,24.6,50.2,24.6,51,24.6z"/>
	<path class="st0" d="M40.1,30.1c0.1,3-1.9,5.6-4.8,6.1c-2.8,0.6-5.7-1-6.7-3.6c-0.9-2.3-0.4-4.8,1.2-6.5c0.7-0.7,1.5-1.2,2.5-1.4
		c0.8-0.2,1.3-0.2,2.2-0.1C35.3,24.7,39.9,25.5,40.1,30.1z M34.2,28.4c-1.2,0.1-1.9,0.8-2.1,1.9c-0.1,1.1,1,2.2,2,2.1
		c1.2-0.1,1.9-0.8,2-2C36.1,29.2,35.3,28.5,34.2,28.4z"/>
	<path class="st0" d="M72,30.1c0.1,3-1.9,5.6-4.8,6.1c-2.8,0.6-5.7-1-6.7-3.6c-0.9-2.3-0.4-4.8,1.2-6.5c0.7-0.7,1.5-1.2,2.5-1.4
		c0.8-0.2,1.3-0.2,2.2-0.1C67.3,24.6,71.8,25.4,72,30.1z M66.1,28.3c-1.2,0.1-1.9,0.8-2.1,1.9c-0.1,1.1,1,2.2,2,2.1
		c1.2-0.1,1.9-0.8,2-2C68,29.1,67.2,28.5,66.1,28.3z"/>
	<path class="st0" d="M71.3,62.2c-0.8-6-1.6-11.9-2.3-17.9c-0.1-0.8-0.3-1.1-1.2-1.1c-5.3-0.3-5.2-0.3-5.8,4.9
		c-0.4,4.2-1.1,8.5-1.7,12.7c-0.1,1-0.1,1.6,1.2,1.5c1.5-0.1,2.2,0.8,2.2,2.3c0,2.9,0,5.8,0,8.6c0,1.3-0.5,2.2-2,2.2
		c-1.6,0-2-1-2-2.2c0-1.9,0-3.8,0-5.7c0-0.9-0.2-1.2-1.1-1.2c-2.3-0.1-2.8-0.8-2.5-3c0.9-7.3,1.9-14.6,2.8-21.9c0.2-1.3,0.8-2,2.1-2
		c3.1,0,6.2,0,9.3,0c1.6,0,2.1,1,2.2,2.3c0.7,5.7,1.5,11.4,2.2,17.1c0.2,1.5,0.4,3.1,0.6,4.6c0.3,2-0.4,2.9-2.4,2.9
		c-1.2,0-1.4,0.3-1.4,1.4c0.1,1.8,0,3.7,0,5.5c0,1.3-0.5,2.2-2,2.2c-1.5,0-1.9-0.8-2-2.1c0-2.9,0-5.9,0-8.8
		C67.8,62.2,69.6,62.3,71.3,62.2z"/>
</g>
<path class="st0" d="M97.9,97.9H2.1V2.1h95.7V97.9z M5.1,94.9h89.7V5.1H5.1V94.9z"/>
</svg>
