<?xml version="1.0" encoding="utf-8"?>
<!-- Generator: Adobe Illustrator 26.5.1, SVG Export Plug-In . SVG Version: 6.00 Build 0)  -->
<svg version="1.1" id="Camada_1" xmlns="http://www.w3.org/2000/svg" xmlns:xlink="http://www.w3.org/1999/xlink" x="0px" y="0px"
	 viewBox="0 0 100 100" style="enable-background:new 0 0 100 100;" xml:space="preserve">
<style type="text/css">
	.st0{fill:#0A0A0A;}
</style>
<g>
	<defs>
		<rect id="SVGID_1_" x="-788.6" y="-543.5" width="955.6" height="198.4"/>
	</defs>
	<clipPath id="SVGID_00000072975494884531241470000010179523328993418149_">
		<use xlink:href="#SVGID_1_"  style="overflow:visible;"/>
	</clipPath>
	<g style="clip-path:url(#SVGID_00000072975494884531241470000010179523328993418149_);">
		
			<image style="overflow:visible;" width="1920" height="1080" xlink:href="7F4363EC.jpg"  transform="matrix(1 0 0 1 -1026.6831 -996.0823)">
		</image>
	</g>
</g>
<path class="st0" d="M97.9,97.9H2.1V2.1h95.7V97.9z M5.1,94.9h89.7V5.1H5.1V94.9z"/>
<g>
	<path class="st0" d="M35,86.6c-3.3-1.5-5.2-4.5-7-7.4c-1.8-2.8-1.1-6.3,1.5-8.6c0.7-0.7,0.9-0.9,0.2-1.8c-2.2-2.5-1.9-5.4-1-8.3
		c1.4-4.4,4-7.8,7.9-10.1c1.1-0.6,1.3-0.9,0.5-2c-7.5-9.8-2.1-23.8,10-26.1c1-0.2,1.9-0.1,2.9-0.3c2-0.3,3.3-1.9,3-3.7
		c-0.2-1.2-0.9-1.9-2-2c-1-0.1-1.8,0.2-2,1.4c-0.2,0.9-0.8,1.4-1.7,1.1c-1-0.2-1.1-1-1-1.9c0.2-2.5,3-4.1,5.7-3.4
		c3.3,0.9,5,4.5,3.4,7.7c-0.6,1.2-0.4,1.5,0.7,2c10.3,4.2,13.6,16.4,6.8,25.3c-0.7,0.9-0.6,1.2,0.4,1.8c4.6,2.7,7.5,6.7,8.6,11.9
		c0.5,2.5,0.2,4.8-1.6,6.6c-0.6,0.7-0.5,0.9,0.1,1.5c3.2,2.9,3.5,6.7,0.8,10.1c-0.6,0.8-1.2,1.5-1.8,2.3c-1.2,1.8-2.7,3-4.8,3.7
		c-1,0-2,0-2.9,0c-2.6-1.3-4.9-3.2-4.6-6.3c0.3-3.5,1.5-6.8,4-9.4c1.1-1.2,1.4-2.2,1.4-3.6c0-1.1-0.3-1.5-1.4-1.5
		c-7.4,0-14.7,0-22.1,0c-1.9,0-1.3,1.3-1.4,2.3c-0.2,1.3,0.4,1.5,1.5,1.5c3.6-0.1,7.2,0,10.8,0c1.1,0,2.3,0.1,2.3,1.5
		c0,1.4-1.2,1.4-2.3,1.4c-3.1,0-6.2,0-9.5,0c0.6,1.5,1.1,2.9,1.7,4.2c2,5,0.8,8-4.1,10C37,86.6,36,86.6,35,86.6z M50.1,52
		c7.5,0,13.5-6.1,13.5-13.6c0-7.4-6.2-13.5-13.6-13.4c-7.5,0-13.5,6.2-13.5,13.7C36.5,46,42.7,52,50.1,52z M69.1,64.3
		c-0.1-4.7-4.4-10.6-8.8-12.2c-0.6-0.2-1-0.1-1.5,0.2c-5.9,3.5-11.7,3.5-17.6,0c-0.5-0.3-0.9-0.4-1.5-0.2c-4.4,1.6-8.6,7.3-8.8,11.9
		c-0.1,1.9,1,3.7,2.6,4.2c0.8,0.3,1.3,0.3,1.2-0.8c-0.1-1.2,0-2.4,0.9-3.2c0.8-0.7,1.4-1.4,1.3-2.6c-0.1-0.8,0.4-1.4,1.3-1.4
		c0.9,0,1.5,0.5,1.4,1.3c-0.1,1.5,0.7,1.4,1.8,1.4c5.7,0,11.4,0,17.2,0c1.1,0,1.9,0.1,1.8-1.4c-0.1-0.7,0.5-1.2,1.3-1.3
		c0.7-0.1,1.4,0.3,1.4,0.9c-0.1,1.7,1,2.7,1.9,3.9c0.3,0.4,0.3,1,0.4,1.6c0.2,0.6-0.4,1.5,0.3,1.8c0.9,0.3,1.6-0.4,2.2-1
		C68.8,66.4,69.2,65.4,69.1,64.3z M63.4,83.7c0.8,0,1.5-0.2,2-0.7c1.6-1.6,3.1-3.4,4.2-5.5c1-1.9,0.1-4.3-1.8-5.3
		c-1.9-1-4.3-0.5-5.4,1.4c-1.1,1.8-1.8,3.8-2.4,5.9C59.4,81.7,61.2,83.7,63.4,83.7z M40.2,80.1c-0.4-2.1-1.3-4.2-2.4-6.2
		c-1.1-2.2-3.6-2.8-5.6-1.6c-2.1,1.2-2.8,3.8-1.5,5.8c1.1,1.6,2.3,3.1,3.6,4.6c1,1.1,2.3,1.3,3.7,0.8C39.3,82.9,40,81.8,40.2,80.1z"
		/>
	<path class="st0" d="M47.9,86.6c-1.3,0-2.6-0.4-3.6-1.3c-0.4-0.4-0.8-0.8-1-1.4c-0.3-0.7-0.1-1.3,0.5-1.8c0.6-0.4,1.4-0.4,1.8,0.2
		c0.8,1.5,2.1,1.4,3.5,1.4c1,0,1.9,0,2.9,0c1,0,1.8-0.2,2.3-1.1c0.5-0.8,1.2-1.1,2-0.5c0.9,0.6,0.7,1.4,0.3,2.3
		c-0.2,0.4-0.5,0.7-0.8,1c-1,0.8-2.3,1.2-3.7,1.2H47.9z"/>
	<path class="st0" d="M57.7,71.5c0,0.4-0.5,0.9-1.4,0.8c-0.9-0.1-1.3-0.6-1.3-1.5c0.1-0.8,0.6-1.4,1.4-1.3
		C57.3,69.6,57.8,70.1,57.7,71.5z"/>
	<path class="st0" d="M50.1,47.4c-1.6-0.1-3-0.7-4.1-2c-0.5-0.6-0.5-1.2-0.1-1.8c0.5-0.6,1.3-0.8,1.9-0.2c1.5,1.5,2.9,1.4,4.4,0
		c0.5-0.5,1.2-0.4,1.8,0.1c0.6,0.6,0.6,1.3,0,1.9C53,46.7,51.7,47.2,50.1,47.4z"/>
	<path class="st0" d="M55.6,36.5c1.2-0.1,2,0.3,2.6,0.9c0.5,0.4,0.7,1,0.4,1.6c-0.3,0.7-0.9,0.9-1.6,0.8c-0.5-0.1-0.9-0.6-1.5-0.2
		c-0.8,0.5-1.7,0.4-2.1-0.6c-0.4-1.1,0.3-1.7,1.2-2.1C55,36.7,55.4,36.6,55.6,36.5z"/>
	<path class="st0" d="M44,36.5c0.9-0.1,1.5,0.3,2.1,0.7c0.7,0.5,0.9,1.2,0.5,1.9c-0.3,0.7-1,0.8-1.7,0.6c-0.4-0.1-0.8-0.5-1.4-0.2
		c-0.9,0.5-1.7,0.4-2.1-0.6c-0.5-1.1,0.4-1.6,1.2-2.1C43.1,36.6,43.5,36.4,44,36.5z"/>
</g>
</svg>
