<?xml version="1.0" encoding="utf-8"?>
<!-- Generator: Adobe Illustrator 26.5.1, SVG Export Plug-In . SVG Version: 6.00 Build 0)  -->
<svg version="1.1" id="Camada_1" xmlns="http://www.w3.org/2000/svg" xmlns:xlink="http://www.w3.org/1999/xlink" x="0px" y="0px"
	 viewBox="0 0 100 100" style="enable-background:new 0 0 100 100;" xml:space="preserve">
<style type="text/css">
	.st0{fill:#0A0A0A;}
</style>
<g>
	<defs>
		<rect id="SVGID_1_" x="-918.9" y="-543.5" width="955.6" height="198.4"/>
	</defs>
	<clipPath id="SVGID_00000112596728079972224410000007155277532143115137_">
		<use xlink:href="#SVGID_1_"  style="overflow:visible;"/>
	</clipPath>
	<g style="clip-path:url(#SVGID_00000112596728079972224410000007155277532143115137_);">
		
			<image style="overflow:visible;" width="1920" height="1080" xlink:href="C5350FA5.jpg"  transform="matrix(1 0 0 1 -1156.9458 -996.0823)">
		</image>
	</g>
</g>
<path class="st0" d="M97.9,97.9H2.1V2.1h95.7V97.9z M5.1,94.9h89.7V5.1H5.1V94.9z"/>
<g>
	<path class="st0" d="M25.2,80c-0.2-0.7-0.3-1.5-0.3-2.4c0.1-6.2,0-12.4,0-18.6c-0.6,0.4-0.6,1.1-0.8,1.6c-0.8,1.9-2.6,2.9-4.5,2.4
		c-1.7-0.4-3-2.3-2.6-4.2c0.4-2.4,1.2-4.7,1.8-7c0.7-2.8,1.4-5.6,2.2-8.4c1.1-4.1,4.3-6.5,8.5-6.5c3.1,0,6.2,0,9.3,0
		c4.2,0,7.4,2.6,8.5,6.6c0.9,3.6,1.9,7.2,2.9,11.4c1.6-4.1,3-7.7,4.3-11.4c1.5-4,5.3-6.6,9.5-6.6c1.4,0,2.7,0,4.1,0
		c3.8,0.1,7.2,2.4,8.6,6c1.9,5,3.8,9.9,5.7,14.9c0.6,1.6,0.3,3.5-1,4.6c-0.4,0.3-0.8,0.6-1.4,0.7c-0.7,0.1-0.5,0.6-0.5,1.1
		c0.2,1.3-0.5,1.7-1.7,1.7c-1.5,0-2.9,0.1-4.4,0c-1.1-0.1-1.3,0.3-1.3,1.3c0.1,3.4-0.1,6.8,0.1,10.2c0.1,2.2,0.1,4.1-1.8,5.3
		c-0.5,0.3-1.1,0.4-1.7,0.4c-2.1-0.2-2.1-0.9-3-0.9c-1.1,0-0.7,0.7-2.8,1c-0.8,0.1-1.6-0.1-2.3-0.6c-1.4-1.1-1.7-3-1.6-5
		c0.2-3.5,0-6.9,0.1-10.4c0-0.7-0.6-1.3-1.3-1.3c-1.5,0.1-2.9,0-4.4,0c-0.9,0-1.7-0.2-1.7-1.2c0-0.9,0.1-1.4-1-1.8
		c-0.9-0.3-1.6-0.6-2.3,0.2c-0.5,0.5-1.1,0.2-1.7,0.1c-2-0.4-2.6-2-3.3-3.7c-0.1,6.1-0.2,12.1-0.1,18.1c0,1.3-0.1,2.5-0.7,3.4
		c-1.3,2.5-4.6,2.7-6.3,0.5c-0.7-0.9-1-2.1-0.9-3.5c0.1-3.6,0-7.3,0.1-10.9c0-1.1-0.4-1.3-1.4-1.3c-1,0-1.4,0.3-1.3,1.3
		c0.1,3.6-0.1,7.1,0,10.7c0,1.2-0.1,2.2-0.6,3.1C30.7,83.9,26.1,83.2,25.2,80z M76.3,63.3c0.3-0.6-0.1-1.1-0.2-1.5
		c-1.4-3.7-2.9-7.4-4.3-11.2c-0.4-1-1.5-2.4,0.3-3.1c1.7-0.6,1.8,1.2,2.2,2.2c1.3,3.1,2.4,6.3,3.7,9.5c0.3,0.8,0.7,1.6,1.7,1.2
		c0.9-0.4,0.6-1.2,0.3-1.9c0-0.1-0.1-0.1-0.1-0.2c-1.9-5-3.7-10-5.7-14.9c-1-2.5-2.9-3.8-5.6-3.9c-1.7-0.1-3.4-0.1-5.1,0
		c-3.3,0.1-5.2,1.4-6.3,4.5c-1.8,4.8-3.6,9.6-5.4,14.4c-0.3,0.7-1,1.6,0.3,2.1c1.2,0.4,1.4-0.5,1.8-1.3c1.3-3.4,2.6-6.8,3.9-10.1
		c0.4-0.9,0.7-2,2-1.5c1.2,0.5,0.8,1.5,0.4,2.5c-1.5,4-3.1,8-4.6,12c-0.3,0.7-0.6,1.2,0.6,1.2C62.9,63.3,69.6,63.3,76.3,63.3z
		 M27.6,50.6c0,0.6,0.1,1.2,0,1.8c-0.2,1.4,0.3,1.7,1.7,1.7c2.1-0.1,4.2,0,6.4,0c1.6,0,3.8,0.6,4.8-0.2c1.1-1,0.3-3.2,0.3-4.9
		c0-1,0-2.1,1.3-2.2c1.2-0.1,1.4,1,1.6,1.9c0.9,3.6,1.9,7.1,2.8,10.7c0.2,0.7,0.4,1.5,1.4,1.2c1-0.2,0.8-1,0.6-1.7
		c-1.3-4.9-2.5-9.9-3.8-14.8c-0.8-2.9-3-4.5-6-4.6c-3,0-5.9,0-8.9,0c-3,0-5.6,2-6.4,4.9c-1.2,4.4-2.3,8.9-3.4,13.4
		c-0.2,0.9-1.2,2.3,0.5,2.7c1.6,0.4,1.3-1.3,1.5-2.1c1-3.2,1.8-6.5,2.7-9.8c0.2-0.9,0.4-1.9,1.6-1.8c1.3,0.2,1.2,1.3,1.2,2.3
		C27.6,49.5,27.6,50,27.6,50.6z M36.4,63.3c1,0,2-0.1,2.9,0c1.1,0.1,1.5-0.1,1.4-1.4c-0.2-1.3-0.1-2.6,0-3.9
		c0.1-1.2-0.2-1.4-1.1-1.4c-2.3,0-4.6,0-6.9,0c-1.7,0-4.1-0.7-4.8,0.3c-0.9,1.2-0.2,3.5-0.3,5.3c0,0.8,0.3,1,1,1
		C31.2,63.3,33.8,63.4,36.4,63.3z M67.1,72.8c0,1.9,0,3.8,0,5.6c0,1,0.2,1.9,1.4,1.9c1.1,0,1.3-0.9,1.3-1.8c0-3.8-0.1-7.6,0-11.5
		c0-1.2-0.6-1.2-1.4-1.2c-0.8,0-1.4,0.6-1.3,1.3C67.2,69.1,67.1,71,67.1,72.8z M40.7,75.2c0.1-2.8,0-5.5,0.1-8.3c0-1-0.4-1-1.2-1
		c-1,0-1.2,0-1.2,2.4c0,3.2-0.2,6.5-0.1,9.7c0,1.3,0.1,2.4,1.3,2.3c0.9,0,1.3-0.7,1.3-1.6C40.7,77.6,40.7,76.4,40.7,75.2z
		 M64.5,72.9c0-1.9-0.1-3.9,0-5.8c0-0.7-0.5-1.2-1.2-1.2c-0.8,0.1-1.5-0.2-1.5,1.1c0.1,3.9,0,7.7,0,11.6c0,1,0.3,1.8,1.4,1.7
		c1,0,1.3-0.8,1.3-1.7C64.5,76.8,64.5,74.8,64.5,72.9z M30.2,75.2c0.1-2.8-0.1-5.6,0.1-8.3c0.1-1.3-0.8-0.9-1.4-1
		c-0.7-0.1-1.2,0-1.2,1c0.1,3.9,0,7.9,0,11.8c0,0.9,0.3,1.6,1.2,1.7c1.1,0,1.4-0.8,1.4-1.8C30.2,77.5,30.1,76.3,30.2,75.2z"/>
	<path class="st0" d="M73.6,31.6c-4.1,4.9-10.6,5.6-15.6-0.1c0.4,3-1.4,2.9-3.2,2.8c-0.7,0-1.5,0-2.2,0c-2.4,0-2.7-0.3-2.4-2.8
		c0.2-1.1,0.3-2.3,0.8-3.3c2.8-5.7,7.9-8.8,13.5-10.9c2.8-1,5.6,0.3,7.8,2.5c0.9,0.9,1.9,1.6,3,2.2c4,2.2,5.9,5.7,6.3,10.2
		c0.1,1.5-0.4,2.2-1.9,2.1c-1-0.1-2.1,0-3.1,0C74,34.2,74,34.2,73.6,31.6z M59.3,26.3c0,3.7,2.9,6.6,6.5,6.6c3.6,0,6.6-2.9,6.6-6.6
		c0-3.6-2.9-6.6-6.5-6.6C62.2,19.7,59.3,22.7,59.3,26.3z M75.8,25.6c0.2,2,0.4,3.6,0.5,5.3c0.1,1.1,0.9,0.7,1.5,0.7
		c0.4,0,1,0.2,0.8-0.5C78.3,29.1,77.7,27.2,75.8,25.6z M55.9,25.7c-1.8,1.2-2.2,2.9-2.7,4.7c-0.1,0.4-0.6,1.3,0.6,1.3
		c0.7,0,1.6,0.5,1.7-0.9C55.5,29.1,55.7,27.5,55.9,25.7z"/>
	<path class="st0" d="M25,26.3c0-5.1,4.1-9.2,9.3-9.2c5,0,9.1,4.1,9.1,9.2c0,5.1-4.1,9.3-9.2,9.3C29.1,35.6,25,31.5,25,26.3z
		 M40.7,26.3c0-3.7-3-6.6-6.6-6.6c-3.6,0-6.6,3-6.6,6.6c0,3.6,3,6.6,6.6,6.6C37.9,32.9,40.7,30,40.7,26.3z"/>
</g>
</svg>
