<?xml version="1.0" encoding="utf-8"?>
<!-- Generator: Adobe Illustrator 26.5.1, SVG Export Plug-In . SVG Version: 6.00 Build 0)  -->
<svg version="1.1" id="Camada_1" xmlns="http://www.w3.org/2000/svg" xmlns:xlink="http://www.w3.org/1999/xlink" x="0px" y="0px"
	 viewBox="0 0 100 100" style="enable-background:new 0 0 100 100;" xml:space="preserve">
<style type="text/css">
	.st0{fill:#0A0A0A;}
</style>
<g>
	<defs>
		<rect id="SVGID_1_" x="-658.1" y="-543.5" width="955.6" height="198.4"/>
	</defs>
	<clipPath id="SVGID_00000150808475131313765890000016079649945612763264_">
		<use xlink:href="#SVGID_1_"  style="overflow:visible;"/>
	</clipPath>
	<g style="clip-path:url(#SVGID_00000150808475131313765890000016079649945612763264_);">
		
			<image style="overflow:visible;" width="1920" height="1080" xlink:href="3951B837.jpg"  transform="matrix(1 0 0 1 -896.1861 -996.0823)">
		</image>
	</g>
</g>
<path class="st0" d="M97.9,97.9H2.1V2.1h95.7V97.9z M5.1,94.9h89.7V5.1H5.1V94.9z"/>
<path class="st0" d="M77.1,32.8c-1.3,5.4-4.4,7.7-9.1,7.2c-1.3-0.1-1.6,0.4-1.6,1.6c0.1,3.3,0,6.6,0,9.8c0,3.8-1.2,7.7-4.1,10.1
	c-1.5,1.3-1.2,4.7,0.4,5.9c1.9,1.4,2.9,5.8,1.9,7.9c-0.4,0.8-1,0.9-1.8,0.9c-10.9,0-21.9,0-32.8,0c-4.1,0-7.1-4.2-6.2-8.3
	c0.2-1,0.9-1.4,1.8-1.3c2.6,0.1,5.3-0.4,8.1,0.9c0-2.4,0-4.7,0-6.9c-0.1-6.6,2.6-11.7,7.7-15.7c1.3-1,2.6-1.9,3.7-3.1
	c2-1.9,3.2-4.4,3.3-7.1c0.1-6.2,3.1-9.9,9.5-11.2c2.7-0.6,5.6,0.1,7.7,2c0.1,0.1,0.3,0.3,0.3,0.4c1.7,2.5,4.1,3.3,7.1,2.9
	c1.2-0.2,2.5-0.2,3.4,0.8C76.7,30.7,76.9,31.7,77.1,32.8z M53.2,73.1c-0.7-2-2-3.2-3.9-3.3c-1.9-0.2-2.4-1-2.3-2.8
	c0.1-3.3-1.5-5-4.8-5.6c-1.1-0.2-1.9-0.6-1.8-1.8c0.1-1.2,1.1-1.4,2.2-1.3c0.4,0,0.7,0.1,1.1,0.1c3.5,0.8,5.9,3.4,6.3,7.1
	c0.1,1,0.5,1.5,1.4,1.4c1.1-0.1,0.5-1,0.5-1.5c0.1-1.2,0-2.4,0-3.6c0-1.1,0.4-1.9,1.6-1.9c1.2,0,1.5,0.9,1.5,2c0,2.1,0.1,4.2,0,6.2
	c-0.1,1.8,1,3.2,1.7,4.6c0.3,0.7,2,0.2,3,0.2c0.2,0,0.4,0,0.5,0c1.6,0.3,1.7-0.6,1.6-1.8c-0.1-1-0.7-1.5-1.6-1.6
	c-1.2-0.2-1.7-0.9-1.7-2.1c0-1.9,0-3.8,0-5.7c0-0.8,0.3-1.4,0.9-1.8c3-2.2,4.1-5.2,4.1-8.8c0-4.1,0-8.2,0-12.3c0-1.4,0.6-2.1,2-2
	c1.4,0,2.7,0,4.1,0c2.4-0.1,3.6-1.3,3.7-3.6c0.1-1.3-0.4-1.8-1.6-1.5c-3.1,0.6-5.4-0.6-7.2-3.1c-0.3-0.4-0.7-0.7-1-1
	c-0.5-0.6-1.1-0.8-1.9-0.8c-1.2,0.1-2.5,0-3.7,0c-3.4,0.2-6,2.8-6.2,6.2c-0.1,1.4-0.1,2.9,0,4.3c0,1.7,1,2.8,2.6,2.8
	c1.5,0,2.5-1,2.5-2.8c0-1.7,0-3.4,0-5.2c0-1,0.4-1.8,1.5-1.8c1.2,0,1.6,0.8,1.6,1.9c0,1.8,0.1,3.7,0,5.5c-0.1,3-2.4,5.3-5.3,5.5
	c-1.9,0.1-3.5-0.7-5-2.2c-1.6,2.9-4.1,4.6-6.5,6.4c-3.6,2.8-5.8,6.4-6.2,11c-0.4,4.6-0.1,9.2-0.2,13.7c0,0.7,0.3,0.9,0.9,0.9
	C42.8,73.1,47.9,73.1,53.2,73.1z M31.1,73.1c0.5,0,0.7,0,0.9,0c0.5-0.1,1.3,0.3,1.6-0.3c0.2-0.5-0.2-1.1-0.5-1.6
	c-0.8-1.2-4.7-2.2-5.8-1.4c-0.5,0.4-0.3,0.9-0.1,1.3C28,72.9,29.5,73.3,31.1,73.1z"/>
</svg>
